<?xml version="1.0" encoding="UTF-8" standalone="no"?>
<!-- Created with Inkscape (http://www.inkscape.org/) -->

<svg
   width="251.47124mm"
   height="102.09582mm"
   viewBox="0 0 251.47124 102.09582"
   version="1.1"
   id="svg1"
   xml:space="preserve"
   xmlns:inkscape="http://www.inkscape.org/namespaces/inkscape"
   xmlns:sodipodi="http://sodipodi.sourceforge.net/DTD/sodipodi-0.dtd"
   xmlns="http://www.w3.org/2000/svg"
   xmlns:svg="http://www.w3.org/2000/svg"><sodipodi:namedview
     id="namedview1"
     pagecolor="#505050"
     bordercolor="#eeeeee"
     borderopacity="1"
     inkscape:showpageshadow="0"
     inkscape:pageopacity="0"
     inkscape:pagecheckerboard="0"
     inkscape:deskcolor="#505050"
     inkscape:document-units="mm" /><defs
     id="defs1" /><g
     inkscape:label="Layer 1"
     inkscape:groupmode="layer"
     id="layer1"
     transform="translate(-27.632608,-53.741147)"><path
       style="fill:#071B3A"
       d="m 197.48826,155.73714 c -5.10443,-0.45954 -10.3331,-2.2321 -14.27433,-4.83912 -1.56123,-1.03272 -4.29208,-3.30156 -4.62981,-3.84655 -0.25927,-0.41838 0.418,-1.50071 3.12872,-4.99985 l 1.4196,-1.83251 1.82987,1.62806 c 2.31742,2.06184 3.44727,2.83615 5.73227,3.92846 2.81033,1.34344 4.85004,1.80028 8.61696,1.92999 3.98029,0.13706 6.12456,-0.23137 8.77975,-1.50852 2.56311,-1.23287 5.43209,-3.96884 6.67183,-6.36254 1.56222,-3.01631 2.25934,-6.37097 2.26081,-10.87939 l 8.9e-4,-2.73487 -1.64067,1.65671 c -3.35277,3.38558 -7.79782,5.34366 -12.97378,5.71508 -4.00925,0.2877 -6.54293,0.0158 -9.88459,-1.06062 -7.99499,-2.57543 -13.74754,-8.96083 -15.5386,-17.24803 -0.5185,-2.39911 -0.5202,-7.90098 -0.003,-10.60043 1.4691,-7.671717 6.24768,-13.893147 13.32475,-17.348037 4.05976,-1.98189 5.15063,-2.20502 10.75298,-2.19947 l 4.76678,0.005 2.10625,0.72825 c 3.37864,1.16817 6.06068,2.8863 8.04298,5.15237 l 0.98409,1.12496 0.13995,-0.84699 c 0.077,-0.46584 0.14105,-1.96939 0.14239,-3.34123 l 0.002,-2.49424 h 3.95617 3.95617 l 0.14645,17.903137 c 0.15845,19.37187 -0.0401,29.79834 -0.62484,32.8081 -2.27943,11.73303 -10.92806,19.02595 -23.28627,19.63604 -1.09747,0.0542 -2.85514,0.0211 -3.90595,-0.0735 z m 7.73707,-30.13111 c 5.65321,-1.16656 9.92459,-5.20704 11.49846,-10.87687 0.31467,-1.13359 0.40071,-2.26907 0.4032,-5.32106 0.004,-4.46373 -0.21122,-5.55133 -1.7024,-8.61708 -1.66343,-3.419847 -5.14567,-6.360077 -8.80705,-7.436187 -7.76333,-2.28174 -15.97717,1.15205 -19.39306,8.107237 -1.4824,3.01834 -1.78311,4.37281 -1.78872,8.05689 -0.005,3.56217 0.2844,4.94524 1.62607,7.75987 3.15618,6.62122 10.38048,9.93325 18.1635,8.3272 z M 52.293742,140.08417 c -6.537579,-0.99304 -13.587565,-3.74964 -19.443854,-7.6027 -3.143027,-2.06791 -5.299602,-3.74063 -5.214869,-4.04484 0.07443,-0.26722 1.638233,-2.60446 4.315418,-6.44975 l 1.970401,-2.83014 2.218786,2.05415 c 5.933815,5.49349 11.735271,8.60079 17.345258,9.29021 3.784405,0.46508 6.976033,-0.32815 9.088448,-2.25877 1.5465,-1.41342 2.216789,-2.8938 2.203439,-4.86645 -0.01189,-1.757 -0.466415,-3.04399 -1.609957,-4.5586 -1.876117,-2.4849 -5.169722,-4.37325 -13.311888,-7.63222 -2.499788,-1.00056 -5.52409,-2.30242 -6.72067,-2.89303 -3.307722,-1.63263 -7.996401,-4.87012 -7.053131,-4.87012 0.144485,0 1.699974,0.44623 3.456643,0.99161 3.681146,1.14287 8.882113,2.47565 13.45412,3.44769 12.067857,2.56572 18.247642,5.03784 22.285049,8.91476 2.818904,2.70685 4.13851,5.5536 4.13851,8.92788 0,6.20558 -5.08909,11.5206 -13.048237,13.62751 -4.170326,1.10395 -9.784648,1.40427 -14.073466,0.75281 z m 27.935552,-3.0995 c 0,-0.0755 0.353129,-0.7186 0.784731,-1.42909 1.144926,-1.88475 2.446808,-4.76323 2.901487,-6.41522 0.299319,-1.08752 0.398945,-2.28432 0.406035,-4.87763 0.0083,-3.02138 -0.05277,-3.62211 -0.505223,-4.97282 -2.08297,-6.21829 -7.156782,-10.73732 -15.891975,-14.15432 -1.097468,-0.4293 -4.389873,-1.54464 -7.316454,-2.47852 -14.533079,-4.637567 -17.699678,-5.891667 -21.84563,-8.651737 -4.471489,-2.97679 -7.652881,-7.49209 -8.432297,-11.96783 -0.341457,-1.9608 -0.144314,-7.54165 0.325378,-9.21097 0.548657,-1.94997 2.390648,-5.505 3.862741,-7.45507 3.675106,-4.86838 9.488306,-8.53538 16.456626,-10.38092 6.564909,-1.73871 15.322916,-1.65678 22.332534,0.2089 4.117056,1.0958 8.991755,3.37937 11.954517,5.60013 l 1.152531,0.86389 -3.00505,4.47368 -3.00505,4.47368 -1.029721,-0.85889 c -3.517117,-2.93365 -8.10763,-5.1583 -12.714748,-6.1618 -2.627264,-0.57226 -8.685958,-0.56982 -11.151178,0.005 -4.757177,1.10825 -8.422879,3.31897 -10.224996,6.16651 -1.284789,2.0301 -1.732531,4.88709 -1.174025,7.49132 0.539923,2.51757 3.126059,5.19859 6.743095,6.9905 2.629891,1.30286 5.388014,2.30714 12.748367,4.6419 13.628336,4.323 18.608055,6.75191 23.189879,11.311107 2.275272,2.26404 3.529228,4.0132 4.76026,6.64015 3.802113,8.1135 2.406295,17.31205 -3.705416,24.41897 -2.000215,2.32593 -7.616418,6.55082 -7.616418,5.72959 z M 117.03328,134.452 c -4.91707,-0.44174 -8.69055,-2.21963 -11.91441,-5.61352 -2.57159,-2.70721 -4.08987,-5.697 -4.96951,-9.78596 -0.393743,-1.8303 -0.440393,-3.3116 -0.563753,-17.90314 l -0.13448,-15.907747 h 4.467713 4.46772 l 0.005,12.91465 c 0.006,15.705137 0.14879,18.508817 1.06447,20.866987 1.62469,4.18408 4.32695,6.68981 8.18523,7.58991 2.32751,0.54299 6.14037,0.34027 8.14985,-0.43329 3.12704,-1.20378 5.51645,-3.55946 7.22942,-7.12737 1.65221,-3.44135 1.59159,-2.75742 1.69496,-19.122547 l 0.0928,-14.68834 1.14505,8.1e-4 c 0.62977,4.5e-4 2.56676,0.0659 4.30442,0.14535 l 3.15937,0.14453 v 24.021127 24.02113 h -4.18711 -4.18711 l -0.16123,-3.75954 -0.16123,-3.75953 -0.93304,1.26529 c -1.19394,1.61909 -3.70651,3.93267 -5.3285,4.9065 -1.85698,1.11492 -4.43304,1.95004 -6.84477,2.21896 -1.16836,0.13028 -2.25293,0.22296 -2.41016,0.20596 -0.15724,-0.017 -1.13392,-0.1071 -2.17042,-0.20022 z m 136.68466,-0.2191 c -2.91509,-0.19173 -4.75295,-0.60367 -7.33072,-1.64311 -6.73482,-2.7157 -11.80209,-8.41921 -13.99693,-15.75438 -0.56353,-1.88333 -0.59776,-2.25689 -0.60939,-6.65132 -0.0117,-4.43321 0.0171,-4.76137 0.60347,-6.86022 1.1795,-4.222177 3.16093,-7.728607 6.11391,-10.819447 2.94401,-3.08147 6.29493,-5.2162 10.12032,-6.44724 2.99655,-0.96432 4.19388,-1.09967 8.69221,-0.98258 3.69127,0.0961 4.39326,0.17636 6.14874,0.70316 9.82119,2.94721 15.64427,11.80259 15.64427,23.790807 v 2.50006 H 259.7842 240.46457 l 0.11623,1.28178 c 0.13537,1.49293 1.2164,4.73371 2.075,6.22059 0.32824,0.56842 1.45495,1.88412 2.50381,2.92376 3.19212,3.16409 6.43137,4.4285 11.34522,4.4285 5.20427,0 8.22752,-1.20178 11.88476,-4.72433 1.59422,-1.53552 2.35582,-2.12884 2.56687,-1.99973 0.16506,0.10097 1.51404,1.12015 2.99775,2.26484 l 2.69766,2.08125 -0.4158,0.58394 c -0.7868,1.10495 -4.11871,4.13165 -5.71072,5.18759 -3.49892,2.32076 -7.1514,3.56232 -11.52449,3.91743 -1.5387,0.12494 -2.80809,0.21185 -2.82087,0.19312 -0.0128,-0.0187 -1.1207,-0.10624 -2.46205,-0.19447 z m 16.4557,-30.09043 c -0.37459,-3.87189 -2.70364,-7.738577 -5.96591,-9.904607 -2.1468,-1.42539 -4.0758,-1.96676 -7.38584,-2.07279 -3.5646,-0.11419 -5.14026,0.2142 -7.92245,1.65114 -3.54537,1.83112 -6.05845,4.73109 -7.46249,8.611347 -0.82224,2.27237 -0.83798,2.50077 -0.19023,2.76113 0.27808,0.11178 6.81657,0.20673 14.77455,0.21457 l 14.27571,0.014 z m -118.99691,5.37649 V 85.241633 h 1.18435 c 0.6514,0 2.53552,0.0648 4.18694,0.144 l 3.00257,0.144 0.1603,3.84758 0.16029,3.84759 1.06469,-1.51607 c 2.02754,-2.88711 5.02159,-5.11109 8.2663,-6.14021 1.49546,-0.4743 2.14673,-0.5486 4.80913,-0.5486 2.12578,0 3.12946,0.081 3.241,0.26144 0.23373,0.37819 0.39219,5.68159 0.21269,7.11827 l -0.15243,1.22001 -1.15096,-0.30644 c -1.35236,-0.36005 -4.25052,-0.40406 -5.94291,-0.0902 -0.65684,0.1218 -1.91305,0.57398 -2.7916,1.00485 -3.57318,1.75241 -5.98045,5.06407 -7.0862,9.748387 -0.31489,1.33394 -0.37921,3.53764 -0.45783,15.68604 l -0.0915,14.13406 h -4.30743 -4.30742 z"
       id="path1" /></g></svg>
